<?xml version="1.0" encoding="utf-8"?>
<!-- Generator: Adobe Illustrator 16.0.0, SVG Export Plug-In . SVG Version: 6.00 Build 0)  -->
<!DOCTYPE svg PUBLIC "-//W3C//DTD SVG 1.1//EN" "http://www.w3.org/Graphics/SVG/1.1/DTD/svg11.dtd">
<svg version="1.1" id="图层_3" xmlns="http://www.w3.org/2000/svg" xmlns:xlink="http://www.w3.org/1999/xlink" x="0px" y="0px"
	 width="192px" height="192px" viewBox="0 0 192 192" enable-background="new 0 0 192 192" xml:space="preserve">
<line fill="none" x1="19" y1="73.362" x2="178.469" y2="73.362"/>
<path fill="none" d="M47.735,76.083h51v51h-51V76.083z"/>
<path fill="#34A853" d="M96,11.747c-22.035,0-39.922,17.885-39.922,39.922v15.497h15.17V51.669
	c0-13.653,11.099-24.752,24.752-24.752s24.752,11.099,24.752,24.752v15.497h15.17V51.669C135.922,29.632,118.035,11.747,96,11.747z"
	/>
<path fill="#4285F4" d="M143.906,67.638h-7.984v-0.139h-15.17v0.139H71.248v-0.139h-15.17v0.139h-7.984
	c-8.823,0-15.969,7.145-15.969,15.968v79.844c0,8.823,7.146,15.969,15.969,15.969h95.813c8.824,0,15.969-7.146,15.969-15.969V83.606
	C159.875,74.783,152.729,67.638,143.906,67.638z"/>
</svg>
